# xmcd CD database file
#
# Track frame offsets:
#	150
#	9850
#	20762
#	38244
#	54946
#	75598
#	88743
#	100183
#	115332
#	129086
#	145080
#	158480
#	176017
#	193449
#	208471
#	223458
#	237970
#	251724
#	267718
#
# Disc length: 3748 seconds
#
# Revision: 0
# Processed by: cddbd v1.5.1PL0 Copyright (c) Steve Scherf et al.
# Submitted via: CDex 1.40Release
#
DISCID=140ea213
DTITLE=Jonny Cash - "Solitary man" and "the man comes around
DYEAR=1900
DGENRE=Country
TTITLE0=I´want back down
TTITLE1=Solitary man
TTITLE2=One
TTITLE3=I see darkness
TTITLE4=the meercy seat
TTITLE5=befor my time
TTITLE6=mary of the wilder moor
TTITLE7=wayfaring stranger
TTITLE8=the man comes around
TTITLE9=hurt
TTITLE10=brige over troubled water
TTITLE11=I hung my head
TTITLE12=first time I erver I saw our face
TTITLE13=personal Jesus
TTITLE14=Danny Boy
TTITLE15=Desperado
TTITLE16=Iám so homesome I could cry
TTITLE17=streets of Laredo
TTITLE18=we´ll meet again
EXTD=ID3G: 2
EXTT0=
EXTT1=
EXTT2=
EXTT3=
EXTT4=
EXTT5=
EXTT6=
EXTT7=
EXTT8=
EXTT9=
EXTT10=
EXTT11=
EXTT12=
EXTT13=
EXTT14=
EXTT15=
EXTT16=
EXTT17=
EXTT18=
PLAYORDER=
